<?xml version="1.0" encoding="UTF-8"?>
<svg version="1.1" viewBox="0 0 154.67 98.669" xmlns="http://www.w3.org/2000/svg">
 <path d="m0 0v98.67h154.67v-98.67zm5.6699 5.6699h143.33v87.33h-143.33z"/>
 <path d="m80.74 51.199h8.4481q0 5.6819-3.0278 9.1583-3.925 4.5231-10.055 4.5231-5.3828 0-9.0088-3.7381-3.6633-3.7755-3.6633-9.2331 0-4.3362 2.2802-6.9528 2.3176-2.654 7.85-4.6352 5.495-2.0186 6.9528-3.2521 1.4952-1.2336 1.4952-3.8128 0-2.5793-1.57-4.0745-1.5326-1.5326-4.1119-1.5326t-4.1119 1.4952q-1.5326 1.4952-1.5326 4.0745 0 1.1588 0.44857 3.2147h-8.7097q-0.07476-0.9719-0.14952-1.7195-0.03738-0.74762-0.03738-1.3457 0-5.9062 3.9997-9.8312 3.9624-3.925 10.018-3.925 6.0931 0 10.168 3.9624 4.0745 3.9624 4.0745 9.9059 0 6.0931-4.0745 9.8312-2.5793 2.355-9.719 4.5605-4.8595 1.4952-4.8595 4.71 0 0.89714 0.33642 1.7195 0.37381 0.785 0.9719 1.3831 0.59809 0.59809 1.3831 0.93452 0.82238 0.33642 1.7195 0.33642 4.1119 0 4.4857-5.7566zm-9.5321 22.765q0-2.0933 1.5326-3.6259 1.5326-1.5326 3.6633-1.5326t3.6633 1.5326q1.5326 1.5326 1.5326 3.6633 0 2.1681-1.5326 3.7007-1.4952 1.4952-3.6259 1.4952-2.2055 0-3.7007-1.4952-1.5326-1.5326-1.5326-3.7381z"/>
</svg>
